<svg width="640" height="480.0000000000001" xmlns="http://www.w3.org/2000/svg" xmlns:svg="http://www.w3.org/2000/svg">
 <!-- Created with SVG-edit - http://svg-edit.googlecode.com/ -->
 <g stroke="null">
  <title>Layer 1</title>
  <rect fill="#4bf4f4" stroke-width="0" stroke-dasharray="null" stroke-linejoin="null" stroke-linecap="null" x="2.13333" y="-1.65929" width="634.66667" height="264.88883" id="svg_25" stroke="#000000"/>
  <path stroke="#000000" id="svg_93" d="m341.07996,262.67738l12.74074,-90.07407l12.74074,90.07407l-25.48147,0l-0.00001,0z" opacity="0.4" stroke-linecap="null" stroke-linejoin="null" stroke-dasharray="null" stroke-width="0" fill="#007f00"/>
  <path stroke="#000000" id="svg_88" d="m-13.43857,271.75146l25.77778,-78.22222l25.77777,78.22222l-51.55555,0z" opacity="0.4" stroke-linecap="null" stroke-linejoin="null" stroke-dasharray="null" stroke-width="0" fill="#007f00"/>
  <path stroke="#000000" id="svg_82" d="m452.33923,273.52924l42.66666,-65.77778l42.66666,65.77778l-85.33333,0l0.00001,0z" opacity="0.4" stroke-linecap="null" stroke-linejoin="null" stroke-dasharray="null" stroke-width="0" fill="#007f00"/>
  <path stroke="#000000" id="svg_83" d="m351.00589,273.52924l25.77778,-58.66667l25.77777,58.66667l-51.55556,0l0.00001,0z" opacity="0.4" stroke-linecap="null" stroke-linejoin="null" stroke-dasharray="null" stroke-width="0" fill="#007f00"/>
  <path id="svg_84" stroke="#000000" d="m308.33923,262.86258l25.77778,-58.66667l25.77777,58.66667l-51.55555,0z" opacity="0.4" stroke-linecap="null" stroke-linejoin="null" stroke-dasharray="null" stroke-width="0" fill="#007f00"/>
  <rect fill="#00ff7f" stroke-width="0" stroke-dasharray="null" stroke-linejoin="null" stroke-linecap="null" x="1.03703" y="253.0823" width="635.80248" height="36.32102" id="svg_24" stroke="#000000"/>
  <ellipse fill="#ffffff" stroke-width="0" stroke-dasharray="null" stroke-linejoin="null" stroke-linecap="null" cx="59.02223" cy="69.33333" id="svg_68" rx="55.11111" ry="24.88889" stroke="#00bfbf"/>
  <ellipse stroke="#00bfbf" fill="#ffffff" stroke-width="0" stroke-dasharray="null" stroke-linejoin="null" stroke-linecap="null" cx="119.45992" cy="59.05708" rx="89.25601" ry="29.31034" id="svg_70" transform="rotate(-1.3971754312515259 119.4599151611328,59.057079315186) "/>
  <path id="svg_89" stroke="#000000" d="m4.33921,259.30701l25.77778,-78.22222l25.77777,78.22222l-51.55555,0z" opacity="0.4" stroke-linecap="null" stroke-linejoin="null" stroke-dasharray="null" stroke-width="0" fill="#007f00"/>
  <ellipse fill="#00ff7f" stroke-width="0" stroke-dasharray="null" stroke-linejoin="null" stroke-linecap="null" cx="36.81667" cy="250.95" rx="32" ry="24" id="svg_36" stroke="#000000"/>
  <ellipse fill="#00ff7f" stroke-width="0" stroke-dasharray="null" stroke-linejoin="null" stroke-linecap="null" cx="78.4" cy="248.53333" rx="32" ry="24" id="svg_50" stroke="#000000"/>
  <rect fill="#ffff00" stroke-width="0" stroke-dasharray="null" stroke-linejoin="null" stroke-linecap="null" x="4.35734" y="293.61238" width="635.80248" height="28.00004" id="svg_18" stroke="#000000"/>
  <rect fill="#003f7f" stroke-width="0" stroke-dasharray="null" stroke-linejoin="null" stroke-linecap="null" x="400.94088" y="300.03478" width="49.79682" height="5.5746" transform="rotate(4.131002426147461 425.8392639160163,302.8220520019531) " opacity="0.5" id="svg_95" stroke="#003f7f"/>
  <rect fill="#003f7f" stroke-width="0" stroke-dasharray="null" stroke-linejoin="null" stroke-linecap="null" x="385.68748" y="297.3207" width="18.84279" height="5.65313" transform="rotate(7.575130939483643 395.10885620117267,300.1472778320314) " id="svg_92" opacity="0.5" stroke="#003f7f"/>
  <rect fill="#e5e5e5" stroke-width="0" stroke-dasharray="null" stroke-linejoin="null" stroke-linecap="null" x="374.65663" y="281.52297" width="29.34699" height="9.6406" transform="rotate(27.33866310119629 389.3301391601563,286.34329223632807) " id="svg_94" stroke="#00bfbf"/>
  <rect fill="#ffffff" stroke-width="0" stroke-dasharray="null" stroke-linejoin="null" stroke-linecap="null" x="374.95697" y="281.22263" width="29.34699" height="9.6406" id="svg_71" transform="rotate(27.33866310119629 389.6304626464846,286.0429382324219) " stroke="#00bfbf"/>
  <path fill="#007fff" stroke-dasharray="null" stroke-linejoin="null" stroke-linecap="null" d="m100.40002,348.9c204.31197,2.25 289.50479,-28.5 320.41546,-8.25c30.91067,20.25 24.1254,38.25 67.85269,28.5c43.72729,-9.75 67.85269,-42.75 100.27119,-24c32.41851,18.75 52.77431,17.25 80.6693,16.5c27.89499,-0.75 -26.38716,0 -27.04058,-0.15" id="svg_58" opacity="0.3" transform="rotate(0.25867342948913574 388.98684692384154,352.7950439453079) " stroke="#00bfbf"/>
  <rect fill="#00ffff" stroke-width="0" stroke-dasharray="null" stroke-linejoin="null" stroke-linecap="null" x="2.13333" y="320.7111" width="634.66667" height="56.29626" id="svg_17" stroke="#00bfbf"/>
  <rect fill="#ffff00" stroke-width="0" stroke-dasharray="null" stroke-linejoin="null" stroke-linecap="null" x="2.69752" y="379.79014" width="635.80248" height="94.3704" id="svg_15" stroke="#000000"/>
  <path fill="#007fff" stroke-dasharray="null" stroke-linejoin="null" stroke-linecap="null" d="m-55.04681,347.40687c204.31197,-2.97103 289.50479,37.63298 320.41545,10.89376c30.91067,-26.73923 24.1254,-50.50743 67.85269,-37.63298c43.72729,12.87444 67.85268,56.44948 100.27119,31.69093c32.4185,-24.75854 52.77431,-22.77786 80.6693,-21.78752c27.895,0.99034 -26.38715,0 -27.04058,0.19807" opacity="0.25" id="svg_59" transform="rotate(-178.44100952148438 233.54000854492185,342.26364135742193) " stroke="#00bfbf"/>
  <polygon stroke="#000000" id="svg_14" fill="#007fff" points="252.74530029296875,415.0277404785156 156.50162707029904,455.68304443359375 0.7761150880230332,440.1541442871094 0.7761150880230332,389.90142822265625 156.50162707029904,374.37249755859375 252.74530029296875,415.0277404785156 " stroke-width="0" opacity="0.55"/>
  <ellipse fill="#00ff7f" stroke-width="0" stroke-dasharray="null" stroke-linejoin="null" stroke-linecap="null" cx="307.73333" cy="243.2" rx="32" ry="24" id="svg_52" stroke="#000000"/>
  <ellipse fill="#00ff7f" stroke-width="0" stroke-dasharray="null" stroke-linejoin="null" stroke-linecap="null" cx="290.4" cy="212.53333" rx="32" ry="24" id="svg_53" stroke="#000000"/>
  <path id="svg_6" d="m145.01482,142.20987c0,-45.30387 31.04971,-82 69.38269,-82c38.33298,0 69.38269,36.69613 69.38269,82c0,45.30387 -31.04971,82 -69.38269,82c-38.33298,0 -69.38269,-36.69613 -69.38269,-82z" stroke-linecap="null" stroke-linejoin="null" stroke-dasharray="null" stroke-width="0" fill="#ff7f00" stroke="#000000"/>
  <ellipse id="svg_42" transform="rotate(-3.247354030609131 258.67950439453114,98.35955810546886) " ry="14.66667" rx="24.02355" cy="98.35956" cx="258.67951" stroke-linecap="null" stroke-linejoin="null" stroke-dasharray="null" fill="#ff7f00" stroke="#7f0000"/>
  <path fill="#007fff" stroke-dasharray="null" stroke-linejoin="null" stroke-linecap="null" d="m146.50783,329.9883c161.31966,1.14611 228.58579,-14.51745 252.99208,-4.20242c24.4063,10.31503 19.04882,19.48394 53.5748,14.51745c34.52598,-4.9665 53.57479,-21.77618 79.17164,-12.22523c25.59685,9.55096 41.66929,8.78688 63.69448,8.40484c22.0252,-0.38204 -20.83464,0 -21.35057,-0.07641" opacity="0.3" transform="rotate(-2.2128734588623047 374.36883544921756,331.9724121093757) " id="svg_62" stroke="#00bfbf"/>
  <path fill="#007fff" stroke-dasharray="null" stroke-linejoin="null" stroke-linecap="null" d="m-66.28472,362.26814c181.18489,-2.97102 256.73431,37.63299 284.14604,10.89376c27.41174,-26.73922 21.39453,-50.50742 60.17211,-37.63298c38.77758,12.87444 60.1721,56.44947 88.921,31.69093c28.74889,-24.75854 46.80053,-22.77786 71.53794,-21.78752c24.73743,0.99035 -23.40026,0 -23.97972,0.19807" opacity="0.25" transform="rotate(-178.44100952148438 189.6355285644531,357.12490844726557) " id="svg_60" stroke="#00bfbf"/>
  <path fill="#007fff" stroke-dasharray="null" stroke-linejoin="null" stroke-linecap="null" d="m-21.87813,365.05009c253.58012,-2.97102 359.3165,37.63299 397.68102,10.89376c38.36453,-26.73922 29.94303,-50.50742 84.21481,-37.63298c54.27177,12.87444 84.2148,56.44947 124.45076,31.69093c40.23596,-24.75854 65.50041,-22.77786 100.12205,-21.78752c34.62164,0.99035 -32.7502,0 -33.5612,0.19807" opacity="0.25" transform="rotate(-178.44100952148438 336.29904174804693,359.9068603515625) " id="svg_63" stroke="#00bfbf"/>
  <path fill="#007fff" stroke-dasharray="null" stroke-linejoin="null" stroke-linecap="null" d="m226.54265,340.78373c161.31966,1.63182 228.58579,-20.66977 252.99208,-5.98335c24.4063,14.68642 19.04882,27.74101 53.5748,20.66977c34.52598,-7.07124 53.57479,-31.00466 79.17164,-17.40612c25.59684,13.59853 41.66928,12.51065 63.69448,11.96671c22.0252,-0.54394 -20.83464,0 -21.35057,-0.10879" opacity="0.3" transform="rotate(-2.994277000427246 454.4036254882812,343.60864257812443) " id="svg_61" stroke="#00bfbf"/>
  <ellipse ry="135" rx="115.49999" id="svg_19" cy="289.36728" cx="213.21543" stroke-linecap="null" stroke-linejoin="null" stroke-dasharray="null" stroke-width="0" fill="#ff7f00" stroke="#7f0000"/>
  <ellipse rx="3" id="svg_7" cy="222" cx="181.2" stroke-linecap="null" stroke-linejoin="null" stroke-dasharray="null" stroke-width="4" fill="#000000" stroke="#000000"/>
  <ellipse transform="rotate(-3.247354030609131 255.3696899414063,112.10763549804726) " ry="15.99786" rx="27.276" id="svg_35" cy="112.10763" cx="255.36971" stroke-linecap="null" stroke-linejoin="null" stroke-dasharray="null" stroke-width="0" fill="#ff7f00" stroke="#7f0000"/>
  <ellipse id="svg_48" ry="22" rx="36.5" cy="136.4" cx="223.7" stroke-linecap="null" stroke-linejoin="null" stroke-dasharray="null" stroke-width="0.5" fill="#e07d26" stroke="#bf5f00"/>
  <ellipse ry="22" rx="52" id="svg_45" cy="143.4" cx="225.2" stroke-linecap="null" stroke-linejoin="null" stroke-dasharray="null" stroke-width="0.5" fill="#ff7f00" stroke="#bf5f00"/>
  <ellipse id="svg_22" ry="88" rx="14.66667" cy="241.21667" cx="243.79166" stroke-linecap="null" stroke-linejoin="null" stroke-dasharray="null" stroke-width="0.5" fill="#ffffff" stroke="#000000"/>
  <path transform="rotate(112.03437805175781 200.81932067871088,158.7841033935547) " id="svg_27" d="m179.84822,140.79999c40.72159,7.76149 57.60615,52.21363 25.82345,29.63476c-31.78271,-22.57886 -25.82345,-29.63476 -25.82345,-29.63476z" stroke-linecap="null" stroke-linejoin="null" stroke-dasharray="null" stroke-width="0" fill="#ce6402" stroke="#000000"/>
  <ellipse id="svg_21" ry="88" rx="14.66667" cy="245.8" cx="202" stroke-linecap="null" stroke-linejoin="null" stroke-dasharray="null" stroke-width="0.5" fill="#ffffff" stroke="#000000"/>
  <ellipse transform="rotate(2.632431983947754 208.00000000000168,254.1333312988283) " ry="88" rx="14.66667" id="svg_20" cy="254.13333" cx="208" stroke-linecap="null" stroke-linejoin="null" stroke-dasharray="null" fill="#ff7f00" stroke="#000000"/>
  <ellipse id="svg_47" ry="22" rx="58" cy="148.4" cx="226.2" stroke-linecap="null" stroke-linejoin="null" stroke-dasharray="null" stroke-width="0" fill="#ff7f00" stroke="#bf0000"/>
  <ellipse id="svg_23" transform="rotate(-2.544801950454712 234.29240417480494,250.1499633789061) " ry="88" rx="14.29204" cy="250.14996" cx="234.29241" stroke-linecap="null" stroke-linejoin="null" stroke-dasharray="null" fill="#ff7f00" stroke="#000000"/>
  <ellipse fill="#ff7f00" stroke-width="0" stroke-dasharray="null" stroke-linejoin="null" stroke-linecap="null" cx="219.97406" cy="291.21771" id="svg_8" rx="25.25" ry="124.40625" stroke="#7f0000"/>
  <path transform="rotate(112.8814926147461 198.3551788330078,157.0684661865234) " id="svg_29" d="m173.455,135.00037c48.35108,9.52402 68.39908,64.07068 30.66166,36.36443c-37.73743,-27.70624 -30.66166,-36.36443 -30.66166,-36.36443z" stroke-linecap="null" stroke-linejoin="null" stroke-dasharray="null" stroke-width="0.1" fill="#ce6402" stroke="#000000"/>
  <ellipse ry="12.96875" rx="18.28125" id="svg_39" cy="163.03127" cx="222.5687" stroke-linecap="null" stroke-linejoin="null" stroke-dasharray="null" stroke-width="0" fill="#7f0000" stroke="#000000"/>
  <path transform="rotate(-6.348382472991943 252.48599243164094,159.78411865234384) " id="svg_28" d="m231.51489,141.79999c40.72159,7.76149 57.60615,52.21363 25.82345,29.63476c-31.78271,-22.57886 -25.82345,-29.63476 -25.82345,-29.63476z" stroke-linecap="null" stroke-linejoin="null" stroke-dasharray="null" stroke-width="0.1" fill="#ce6402" stroke="#000000"/>
  <path id="svg_34" transform="rotate(101.98526763916016 203.98599243164062,160.9507904052734) " d="m181.27293,141.81085c44.10414,8.26031 62.39123,55.56932 27.96848,31.53934c-34.42275,-24.02997 -27.96848,-31.53934 -27.96848,-31.53934z" stroke-linecap="null" stroke-linejoin="null" stroke-dasharray="null" stroke-width="0.1" fill="#ce6402" stroke="#000000"/>
  <path id="svg_26" d="m223.48415,145.85543c42.72308,8.16913 60.43753,54.95598 27.09268,31.19123c-33.34485,-23.76474 -27.09268,-31.19123 -27.09268,-31.19123z" stroke-linecap="null" stroke-linejoin="null" stroke-dasharray="null" stroke-width="0.1" fill="#ce6402" transform="rotate(-3.0945866107940674 245.48599243164102,164.78410339355474) " stroke="#000000"/>
  <ellipse id="svg_40" ry="10" rx="30" cy="102.8" cx="171.33333" stroke-linecap="null" stroke-linejoin="null" stroke-dasharray="null" fill="#ff7f00" stroke="#7f0000"/>
  <ellipse id="svg_41" ry="10.66667" rx="30" cy="106.13333" cx="172.66667" stroke-linecap="null" stroke-linejoin="null" stroke-dasharray="null" stroke-width="0" fill="#ff7f00" stroke="#7f0000"/>
  <ellipse ry="6.66667" rx="7.33331" id="svg_31" cy="115.46667" cx="175.33336" stroke-linecap="null" stroke-linejoin="null" stroke-dasharray="null" stroke-width="0" fill="#000000" stroke="#7f0000"/>
  <ellipse id="svg_32" ry="6" rx="5.33333" cy="114.80001" cx="269.33333" stroke-linecap="null" stroke-linejoin="null" stroke-dasharray="null" stroke-width="0" fill="#000000" stroke="#7f0000"/>
  <ellipse transform="rotate(34.39031982421875 226.08566284179685,128.80293273925784) " ry="3.04462" rx="5.06361" id="svg_43" cy="128.80293" cx="226.08568" stroke-linecap="null" stroke-linejoin="null" stroke-dasharray="null" stroke-width="0" fill="#6b0000" stroke="#000000"/>
  <ellipse id="svg_44" transform="rotate(-45.61294174194336 221.85795593261722,129.0418243408203) " ry="2.60772" rx="5.00648" cy="129.04183" cx="221.85796" stroke-linecap="null" stroke-linejoin="null" stroke-dasharray="null" stroke-width="0" fill="#6b0000" stroke="#000000"/>
  <path transform="rotate(120.4815673828125 197.07254028320312,149.23815917968753) " d="m171.8492,126.47323c48.9786,9.82476 69.28679,66.09382 31.0596,37.5127c-38.2272,-28.58111 -31.0596,-37.5127 -31.0596,-37.5127z" stroke-linecap="null" stroke-linejoin="null" stroke-dasharray="null" stroke-width="0.1" fill="#ce6402" id="svg_2" stroke="#000000"/>
  <path transform="rotate(-14.57502269744873 252.5725860595702,149.73815917968764) " d="m228.86662,129.23573c46.03214,8.84833 65.11862,59.52509 29.19111,33.7845c-35.92752,-25.74058 -29.19111,-33.7845 -29.19111,-33.7845z" stroke-linecap="null" stroke-linejoin="null" stroke-dasharray="null" stroke-width="0.1" fill="#ce6402" id="svg_3" stroke="#000000"/>
  <path fill="#ce6402" stroke-width="0" stroke-dasharray="null" stroke-linejoin="null" stroke-linecap="null" d="m214.19883,163.74762l0,-23.89525l22.84033,23.89525l-22.84033,0z" id="svg_4" transform="rotate(129.64988708496094 225.61898803710935,151.79998779296875) " stroke="#000000"/>
  <ellipse stroke="#7f0000" fill="#ff7f00" stroke-width="0" stroke-dasharray="null" stroke-linejoin="null" stroke-linecap="null" cx="126.73333" cy="317.2" id="svg_5" rx="33.00001" ry="103.00001"/>
  <ellipse fill="#ff7f00" stroke-width="0" stroke-dasharray="null" stroke-linejoin="null" stroke-linecap="null" cx="89.06667" cy="410.19998" id="svg_9" rx="52" ry="17.33333" stroke="#7f0000"/>
  <ellipse fill="#ff7f00" stroke-width="0" stroke-dasharray="null" stroke-linejoin="null" stroke-linecap="null" cx="318.66316" cy="424.26406" id="svg_11" rx="41.98705" ry="21.24778" transform="rotate(9.18881893157959 318.66314697265597,424.26406860351557) " stroke="#000000"/>
  <ellipse fill="#ff7f00" stroke-width="0" stroke-dasharray="null" stroke-linejoin="null" stroke-linecap="null" cx="294.00002" cy="353.33333" id="svg_13" rx="28.66667" ry="81.33333" stroke="#000000"/>
  <ellipse fill="#00ff7f" stroke-width="0" stroke-dasharray="null" stroke-linejoin="null" stroke-linecap="null" cx="551.73333" cy="215.2" id="svg_30" rx="32" ry="24" stroke="#000000"/>
  <ellipse fill="#00ff7f" stroke-width="0" stroke-dasharray="null" stroke-linejoin="null" stroke-linecap="null" cx="421.06667" cy="219.2" rx="32" ry="24" id="svg_33" stroke="#000000"/>
  <path id="svg_99" stroke="#000000" d="m441.07996,252.19591l25.77778,-58.66667l25.77777,58.66667l-51.55555,0z" opacity="0.4" stroke-linecap="null" stroke-linejoin="null" stroke-dasharray="null" stroke-width="0" fill="#007f00"/>
  <ellipse fill="#00ff7f" stroke-width="0" stroke-dasharray="null" stroke-linejoin="null" stroke-linecap="null" cx="409.39999" cy="249.2" rx="32" ry="24" id="svg_37" stroke="#000000"/>
  <ellipse fill="#00ff7f" stroke-width="0" stroke-dasharray="null" stroke-linejoin="null" stroke-linecap="null" cx="525.73333" cy="247.2" rx="40.66667" ry="24" id="svg_38" stroke="#000000"/>
  <ellipse fill="#00ff7f" stroke-width="0" stroke-dasharray="null" stroke-linejoin="null" stroke-linecap="null" cx="451.73334" cy="248.53333" rx="20" ry="24" id="svg_46" stroke="#000000"/>
  <ellipse fill="#00ff7f" stroke-width="0" stroke-dasharray="null" stroke-linejoin="null" stroke-linecap="null" cx="575.06667" cy="245.86667" rx="40.66667" ry="24" id="svg_49" stroke="#000000"/>
  <ellipse fill="#00ff7f" stroke-width="0" stroke-dasharray="null" stroke-linejoin="null" stroke-linecap="null" cx="54.39999" cy="220.53333" rx="32" ry="24" id="svg_51" stroke="#000000"/>
  <ellipse fill="#ffffff" stroke-width="null" stroke-dasharray="null" stroke-linejoin="null" stroke-linecap="null" opacity="0.25" cx="610.13333" cy="19.55556" id="svg_64" rx="53.33333" ry="55.11111" stroke="#00bfbf"/>
  <ellipse fill="#ffffff" stroke-width="null" stroke-dasharray="null" stroke-linejoin="null" stroke-linecap="null" opacity="0.25" cx="601.24444" cy="34.66667" rx="69.33333" ry="66.66667" id="svg_65" stroke="#00bfbf"/>
  <ellipse fill="#ffffff" stroke-width="null" stroke-dasharray="null" stroke-linejoin="null" stroke-linecap="null" opacity="0.25" cx="603.91112" cy="37.33333" rx="111.11113" ry="115.55556" id="svg_66" stroke="#00bfbf"/>
  <ellipse fill="#ffffff" stroke-width="null" stroke-dasharray="null" stroke-linejoin="null" stroke-linecap="null" opacity="0.25" cx="597.68889" cy="51.55555" rx="126.22223" ry="128" id="svg_67" stroke="#00bfbf"/>
  <ellipse fill="#ffffff" stroke-width="0" stroke-dasharray="null" stroke-linejoin="null" stroke-linecap="null" cx="86.57778" cy="36.44445" rx="55.11111" ry="24.88889" id="svg_69" stroke="#00bfbf"/>
  <rect fill="#ffffff" stroke-width="0" stroke-dasharray="null" stroke-linejoin="null" stroke-linecap="null" x="400.77855" y="293.37437" width="51.06341" height="8.87065" transform="rotate(11.27048397064209 426.3102416992193,297.8096923828123) " id="svg_72" stroke="#00bfbf"/>
  <ellipse opacity="0.7" fill="#003f7f" stroke-width="0" stroke-dasharray="null" stroke-linejoin="null" stroke-linecap="null" cx="381.22909" cy="308.12534" rx="3.62142" ry="5.28367" transform="rotate(-90.74791717529297 381.22909545898443,308.12533569335943) " id="svg_74" stroke="#000000"/>
  <rect fill="#ffffff" stroke-width="0" stroke-dasharray="null" stroke-linejoin="null" stroke-linecap="null" x="402.64605" y="297.3258" width="1.57146" height="5.67538" id="svg_96" transform="rotate(-1.6601945161819458 403.43179321289233,300.16348266601574) " stroke="#000000"/>
  <rect fill="#ffffff" stroke-width="0" stroke-dasharray="null" stroke-linejoin="null" stroke-linecap="null" x="439.90289" y="301.83459" width="1.57146" height="5.67538" transform="rotate(-1.6601945161819458 440.6886291503904,304.6722717285172) " id="svg_97" stroke="#000000"/>
  <ellipse fill="#ffffff" stroke-width="0" stroke-dasharray="null" stroke-linejoin="null" stroke-linecap="null" cx="382.65225" cy="297.83798" rx="3.85178" ry="6.23232" transform="rotate(89.7175064086914 382.65225219726557,297.8379821777344) " id="svg_98" stroke="#000000"/>
  <rect id="svg_1" fill="#ffffff" stroke-width="0" stroke-dasharray="null" stroke-linejoin="null" stroke-linecap="null" x="381.78759" y="298.74927" width="1.57146" height="7.35644" transform="rotate(-1.6601945161819458 382.57333374023546,302.4274902343747) " stroke="#000000"/>
  <rect id="svg_10" fill="#ffffff" stroke-width="0" stroke-dasharray="null" stroke-linejoin="null" stroke-linecap="null" x="380.65283" y="304.93219" width="0.51952" height="3.79837" transform="rotate(33.23659133911133 380.91259765624994,306.83135986328125) " stroke="#000000"/>
  <rect id="svg_12" fill="#ffffff" stroke-width="0" stroke-dasharray="null" stroke-linejoin="null" stroke-linecap="null" x="382.28278" y="305.40878" width="0.84935" height="4.48592" transform="rotate(-1.6601945161819458 382.70745849609193,307.6517028808586) " stroke="#000000"/>
  <rect id="svg_16" fill="#ffffff" stroke-width="0" stroke-dasharray="null" stroke-linejoin="null" stroke-linecap="null" x="384.00029" y="303.72579" width="0.56304" height="5.32789" transform="rotate(-25.189538955688477 384.2817993164062,306.38973999023426) " stroke="#000000"/>
  <ellipse fill="#ffaaaa" stroke-width="0" stroke-dasharray="null" stroke-linejoin="null" stroke-linecap="null" cx="543.2" cy="319.4" id="svg_54" rx="9" ry="16" stroke="#7f0000"/>
  <path fill="#ffaaaa" stroke-width="0" stroke-dasharray="null" stroke-linejoin="null" stroke-linecap="null" d="m526.55399,352.73802l0,-30.00003l30.00003,30.00003l-30.00003,0z" id="svg_55" transform="rotate(-18.29665756225586 541.553955078125,337.7380065917969) " stroke="#7f0000"/>
  <rect fill="#ffaaaa" stroke-width="0" stroke-dasharray="null" stroke-linejoin="null" stroke-linecap="null" x="519.44259" y="306.76605" width="4.83367" height="26" id="svg_56" transform="rotate(-23.532371520996094 521.859436035156,319.76605224609364) " stroke="#7f0000"/>
  <rect fill="#ffaaaa" stroke-width="0" stroke-dasharray="null" stroke-linejoin="null" stroke-linecap="null" x="566.90294" y="342.6497" width="4.41297" height="11.2327" transform="rotate(22.33064842224121 569.1093749999999,348.26605224609364) " id="svg_85" stroke="#7f0000"/>
  <rect fill="#ffaaaa" stroke-width="0" stroke-dasharray="null" stroke-linejoin="null" stroke-linecap="null" x="517.39346" y="294.64785" width="3.68191" height="14.98645" transform="rotate(22.33064842224121 519.2344360351562,302.1410827636718) " id="svg_86" stroke="#7f0000"/>
  <circle fill="#ff5656" stroke-width="0" stroke-dasharray="null" stroke-linejoin="null" stroke-linecap="null" cx="562.15001" cy="269.95" r="13.437" id="svg_75" stroke="#000000"/>
  <rect fill="#ffaaaa" stroke-width="0" stroke-dasharray="null" stroke-linejoin="null" stroke-linecap="null" x="520.21522" y="292.92953" width="3.48273" height="4.08699" transform="rotate(22.33064842224121 521.9566040039062,294.9730529785155) " id="svg_87" stroke="#7f0000"/>
  <path fill="#ffaaaa" stroke-width="0" stroke-dasharray="null" stroke-linejoin="null" stroke-linecap="null" d="m519.83606,294.63099l3.62887,-8.65643l3.62887,8.65643l-7.25774,0z" id="svg_101" transform="rotate(-170.5989990234375 523.4649047851562,290.3027648925782) " stroke="#7f0000"/>
  <path fill="#ffaaaa" stroke-width="0" stroke-dasharray="null" stroke-linejoin="null" stroke-linecap="null" d="m568.48352,345.41419l3.62887,-8.65642l3.62887,8.65642l-7.25774,0z" transform="rotate(-170.5989990234375 572.1123657226561,341.0859680175782) " stroke="#7f0000" id="svg_102"/>
  <path d="m46.10002,253.5c0.00025,1.575 0.33703,2.31764 1.01387,2.77499c0.76476,0.51675 1.42816,1.24823 2.11113,1.72501c0.72141,0.5036 1.41708,1.21683 2.20737,1.49661c0.83769,0.29657 1.80891,-0.03082 2.69262,0.00339c0.82686,0.03201 1.55643,0.64224 2.475,0.75c0.89486,0.10495 1.72257,0.21463 2.5105,0.4855c0.91369,0.31409 1.81326,0.06036 2.7395,0.3895c0.73632,0.26163 1.49995,0.61295 2.43213,0.625c0.87584,0.01135 1.65845,0.28168 2.51888,0.53699c0.86509,0.25671 1.96841,0.53857 2.612,0.08502c0.7113,-0.50128 1.05193,-1.45514 1.6975,-1.89365c0.77283,-0.52493 1.62218,-1.09995 2.29287,-1.54623c0.76847,-0.51135 1.31963,-1.03613 2.12875,-1.59976l0.7895,-0.35025l0.50137,-0.77411l0.402,-0.45801" id="svg_73" opacity="0.4" stroke-linecap="null" stroke-linejoin="null" stroke-dasharray="null" stroke-width="0" stroke="#000000" fill="none"/>
 </g>
</svg>
